<svg width="10" height="10" viewBox="0 0 10 10" fill="none" xmlns="http://www.w3.org/2000/svg">
<path d="M9.87253 0.00104051L7.18476 0.334881C7.091 0.346246 7.05264 0.459893 7.11799 0.526661L7.89505 1.30373L5.71444 3.48434C5.69329 3.5057 5.68142 3.53455 5.68142 3.56461C5.68142 3.59467 5.69329 3.62351 5.71444 3.64487L6.35513 4.28556C6.39917 4.3296 6.47162 4.3296 6.51566 4.28556L8.69769 2.10352L9.47476 2.88059C9.48975 2.89558 9.50866 2.90603 9.52932 2.91076C9.54999 2.91549 9.57157 2.91431 9.59158 2.90734C9.6116 2.90037 9.62925 2.8879 9.64251 2.87136C9.65577 2.85482 9.66409 2.83488 9.66654 2.81382L9.99896 0.127474C10.0013 0.110318 9.99966 0.0928507 9.99414 0.0764386C9.98862 0.0600266 9.97937 0.045115 9.96713 0.0328706C9.95488 0.0206263 9.93997 0.0113812 9.92356 0.00585922C9.90715 0.000337212 9.88968 -0.00131195 9.87253 0.00104051ZM3.64463 5.71468C3.62327 5.69353 3.59442 5.68167 3.56436 5.68167C3.53431 5.68167 3.50546 5.69353 3.4841 5.71468L1.30348 7.89672L0.526417 7.11965C0.511425 7.10467 0.492513 7.09421 0.471851 7.08948C0.451189 7.08475 0.429611 7.08594 0.409593 7.09291C0.389574 7.09988 0.371925 7.11235 0.358668 7.12889C0.34541 7.14543 0.337082 7.16537 0.334637 7.18642L0.000796335 9.87277C-0.00772725 9.94664 0.0533583 10.0077 0.127229 9.9992L2.815 9.66536C2.90876 9.654 2.94711 9.54035 2.88177 9.47358L2.1047 8.69652L4.28674 6.51448C4.33078 6.47044 4.33078 6.39799 4.28674 6.35395L3.64463 5.71468Z" fill="#656060"/>
</svg>
